<?xml version="1.0" standalone="no"?>
<!DOCTYPE svg PUBLIC "-//W3C//DTD SVG 20010904//EN"
 "http://www.w3.org/TR/2001/REC-SVG-20010904/DTD/svg10.dtd">
<svg version="1.0" xmlns="http://www.w3.org/2000/svg"
 width="512.000000pt" height="512.000000pt" viewBox="0 0 512.000000 512.000000"
 preserveAspectRatio="xMidYMid meet">
<metadata>
Created by potrace 1.11, written by Peter Selinger 2001-2013
</metadata>
<g transform="translate(0.000000,512.000000) scale(0.100000,-0.100000)"
fill="#000000" stroke="none">
<path d="M3642 5045 c-96 -45 -135 -105 -182 -279 -26 -97 -29 -133 -31 -351
-2 -104 -6 -226 -10 -270 -4 -44 -10 -132 -13 -195 -12 -225 -34 -431 -70
-655 -8 -44 -13 -132 -11 -196 1 -96 -1 -121 -15 -139 l-17 -23 -89 90 c-109
111 -163 147 -212 146 -70 -2 -194 -23 -228 -39 -64 -31 -133 -133 -134 -199
0 -16 -9 -48 -18 -70 l-18 -40 -47 65 c-80 112 -88 120 -149 151 -102 52 -196
46 -329 -21 -86 -44 -175 -162 -184 -244 -2 -17 -4 -34 -4 -37 -1 -3 -12 -11
-26 -17 -22 -10 -29 -8 -59 18 -18 17 -38 42 -44 57 -30 83 -65 203 -92 318
-17 72 -48 200 -70 285 -37 148 -169 704 -211 895 -48 214 -124 296 -262 282
-135 -14 -208 -70 -233 -177 -4 -19 -9 -42 -11 -50 -6 -27 -5 -364 1 -420 21
-179 25 -202 51 -335 28 -138 30 -150 45 -265 13 -100 13 -96 40 -270 11 -74
30 -180 40 -235 11 -55 28 -163 39 -240 39 -277 43 -356 46 -795 3 -490 17
-599 109 -833 139 -349 335 -559 683 -732 259 -128 485 -176 793 -169 167 3
215 9 360 40 212 47 380 115 543 220 360 233 555 516 618 894 10 62 14 302 5
345 -2 11 -7 54 -10 96 -4 41 -23 165 -42 275 -19 109 -46 260 -59 334 -28
163 -35 307 -40 885 -2 242 -7 566 -11 720 -4 154 -6 429 -5 612 2 369 0 380
-71 484 -41 60 -87 86 -174 99 -103 15 -134 12 -192 -15z"/>
</g>
</svg>
